<svg xmlns="http://www.w3.org/2000/svg" viewBox="0 0 57.891 10.512"><title>Outlines</title><path d="M5.988,9.1A3.783,3.783,0,0,0,3.7,8.244,6.369,6.369,0,0,0,.636,9.1L.492,8.869A2.1,2.1,0,0,0,.7,8.742c.076-.051.162-.114.258-.186A2.291,2.291,0,0,0,2.112,6.924V6.865A.978.978,0,0,0,1.89,6.3a.631.631,0,0,0-.51-.24.75.75,0,0,0-.324.072l-.12-.144a.909.909,0,0,1,.66-.36.972.972,0,0,1,.588.2q-.036-1.08-.888-1.08A.883.883,0,0,0,.78,4.92L.636,4.8a1.287,1.287,0,0,1,.948-.552,1.2,1.2,0,0,1,.312.036.571.571,0,0,1,.156.036q0-.072-.012-.216t-.012-.216a2.709,2.709,0,0,1,.84-1.98L2.976,1.8a5.432,5.432,0,0,1-1.02.168,1.871,1.871,0,0,1-.576-.132H1.344a.049.049,0,0,0-.036-.012,1.4,1.4,0,0,0-.5-.108.478.478,0,0,0-.378.174.613.613,0,0,0-.15.414A.656.656,0,0,0,.3,2.448v.036a.049.049,0,0,1,.012.036L.1,2.592a1.778,1.778,0,0,1-.1-.48,1.2,1.2,0,0,1,.372-.876,1.29,1.29,0,0,1,.876-.4,2.755,2.755,0,0,1,.816.18,2.867,2.867,0,0,0,.828.18A2.547,2.547,0,0,0,3.972.876l.108.168c-.017.016-.038.036-.066.06l-.1.084a2.752,2.752,0,0,0-.624.684,1.69,1.69,0,0,0-.228.9q0,.192.018.486t.066.678q.048.384.066.672t.018.492A4.384,4.384,0,0,1,2.22,7.835,3.424,3.424,0,0,0,3.864,4.872q0-.168-.018-.414T3.78,3.876q-.072-.66-.072-1a1.864,1.864,0,0,1,.624-1.524A2.471,2.471,0,0,1,5.94.876l.132.264Q4.8,1.3,4.8,2.316q0,.36.072,1.056.048.348.066.612t.018.432a3.083,3.083,0,0,1-.588,1.848,4.87,4.87,0,0,1-.546.648,7.92,7.92,0,0,1-.846.732,5.244,5.244,0,0,1,1.08-.24q.132-.012.27-.018c.091,0,.182-.006.27-.006a2.994,2.994,0,0,1,1.992.756l.54-.5.2.216Z"/><path d="M9.208,9.1c-.209-.216-.407-.4-.6-.563a3.971,3.971,0,0,0-.546-.4v-.12c.256-.088.384-.349.384-.78V4.164l-.42-.36,1-.78,1,.816-.408.372V7.919l.336.3.361-.3.144.206ZM9.423.624l1,.036-1,1.356-.288-.024Z"/><path d="M18.517,6.121l.192.035a3.634,3.634,0,0,1-1.368,2.088,3.913,3.913,0,0,1-2.388.793,3.632,3.632,0,0,1-2.568-1A3.34,3.34,0,0,1,11.329,5.52,4.41,4.41,0,0,1,13.549,1.9q-.06,0-.126-.006a1.194,1.194,0,0,1-.126-.018.674.674,0,0,1-.132-.012h-.132A2.28,2.28,0,0,0,10.825,3.4l-.192-.084A3.3,3.3,0,0,1,11.7,1.482,2.988,2.988,0,0,1,13.669.84a6.415,6.415,0,0,1,.756.054q.444.054,1.044.174a10.982,10.982,0,0,0,1.8.216,1.317,1.317,0,0,0,1.248-.66l.192.06a1.677,1.677,0,0,1-.618,1.224,2.108,2.108,0,0,1-1.35.432q-.072,0-.228-.012t-.228-.012v5.6A3.422,3.422,0,0,0,18.517,6.121ZM12.805,3.168a3.79,3.79,0,0,0-.408,1.74,3.119,3.119,0,0,0,1.1,2.4,1.553,1.553,0,0,0,.528-1.344V1.9A2.7,2.7,0,0,0,12.805,3.168Zm3.042-.936q-.1-.024-.222-.048L15.4,2.142a1.026,1.026,0,0,0-.174-.018V5.136a2.168,2.168,0,0,1-.648,1.692c-.008.008-.08.066-.216.173s-.34.276-.612.5a3.111,3.111,0,0,0,1.716.529h.144a1.388,1.388,0,0,0,.144-.007A.973.973,0,0,0,15.889,8a.15.15,0,0,1,.06-.011.227.227,0,0,0,.072-.012V2.268Q15.949,2.256,15.847,2.232Z"/><path d="M24.229,9.1A5.763,5.763,0,0,0,21.9,8.52a3.087,3.087,0,0,0-1.511.349.558.558,0,0,0-.325.479.507.507,0,0,0,.084.277l.013.011a.037.037,0,0,0,.011.024l.06.108c.008.024.02.067.037.132,0,.232-.1.348-.289.348-.231,0-.364-.144-.4-.432V9.732a1.087,1.087,0,0,1,.24-.672,1.5,1.5,0,0,1,.193-.21q.13-.126.323-.306a1.845,1.845,0,0,0,.744-1.224c0-.32-.131-.48-.4-.48q-.276,0-.492.445l-.179-.049q.119-1.054,1.067-1.08a1.524,1.524,0,0,0-.191-.8.741.741,0,0,0-.661-.4.922.922,0,0,0-.792.432l-.18-.084a1.4,1.4,0,0,1,.613-.816,2.205,2.205,0,0,1,1.031-.2,3.657,3.657,0,0,1,.241-1.368,2.543,2.543,0,0,1,.875-1.056,2.63,2.63,0,0,1-.708.108,2.925,2.925,0,0,1-.587-.1q-.193-.048-.33-.072a1.412,1.412,0,0,0-.234-.024c-.409,0-.684.24-.829.72l-.216-.072a2.166,2.166,0,0,1,.492-1.032,1.378,1.378,0,0,1,1.008-.48,2.947,2.947,0,0,1,.8.132,3.22,3.22,0,0,0,.8.144A3.3,3.3,0,0,0,23.593.8l.1.24a5.189,5.189,0,0,1-.456.252A2.581,2.581,0,0,0,22.345,2a1.98,1.98,0,0,0-.276,1.1V5.953a3.263,3.263,0,0,1-.144,1.115l-.179.36q-.11.216-.252.517a.965.965,0,0,1,.089-.055.7.7,0,0,0,.114-.078,2.5,2.5,0,0,0,.846-.846,2.387,2.387,0,0,0,.247-1.158V3.672a4.485,4.485,0,0,1,.119-1.26,1.7,1.7,0,0,1,.8-.936A6.559,6.559,0,0,1,25.333.8l.084.24-.479.21q-.181.078-.252.114a2.137,2.137,0,0,0-.613.492,1.083,1.083,0,0,0-.156.54.745.745,0,0,0-.012.144V4.068L25.9,2.4q.084.06.216.162l.3.234a2.78,2.78,0,0,1,.9,1.272,5.756,5.756,0,0,1,.168,1.572,6.17,6.17,0,0,1-.1,1.236,2.086,2.086,0,0,1-.564,1.081,15.632,15.632,0,0,1-1.272,1.08c-.031.031-.111.1-.239.2a1.748,1.748,0,0,0-.2.24.38.38,0,0,0-.084.2.181.181,0,0,0,.168.2.543.543,0,0,0,.265-.072h.035a.035.035,0,0,0,.024-.012.276.276,0,0,1,.312.313c0,.222-.132.351-.4.383a.144.144,0,0,1-.059.012h-.049a.612.612,0,0,1-.456-.2.643.643,0,0,1-.192-.462,1.9,1.9,0,0,1,.54-1.128q.276-.336.469-.582a3.771,3.771,0,0,0,.287-.414,2.217,2.217,0,0,0,.361-1.164,3.48,3.48,0,0,0-1.2-.252,4.04,4.04,0,0,0-2.772,1.416q.168,0,.42.018l.588.043q.348.023.6.035c.168.008.308.011.42.011a1.066,1.066,0,0,0,.816-.55l.216.155Zm.913-4.128a2.392,2.392,0,0,0,1.223-.3,2.072,2.072,0,0,0-1.079-1.4L23.905,4.392v.3A2.828,2.828,0,0,0,25.142,4.968ZM23.965,6.3a.07.07,0,0,1,.048-.011,4.1,4.1,0,0,1,1.129-.206,3.776,3.776,0,0,1,1.188.229V6.251a.547.547,0,0,1,.011-.107V5.16a.5.5,0,0,1-.011-.1V4.992a2.857,2.857,0,0,1-1.213.24,3.5,3.5,0,0,1-1.212-.24V6.3Z"/><path d="M30.351,9.1A5.841,5.841,0,0,0,28.5,8.352V8.22a.853.853,0,0,0,.4-.816V4.8c0-.3-.131-.456-.4-.456l-.047-.132q.72-.312,1.3-.606t1.033-.57l1.464,1.872-2.172,1.8v1.1c.432.217.779.4,1.044.54l.852-.6.12.168Zm.948-3.78L30.075,3.744V6.312Z"/><path d="M43.683,3,42.4,3.948l1.452.7v.168a.557.557,0,0,0-.216.516V7.716a6.342,6.342,0,0,0-3.252,1.392,4.179,4.179,0,0,0-2.2-.7,3.973,3.973,0,0,0-1.152.156q-.78.24-.78.7a.584.584,0,0,0,.1.277.562.562,0,0,1,.1.263c0,.233-.108.348-.324.348q-.36,0-.408-.432V9.636a1.09,1.09,0,0,1,.252-.683,4.793,4.793,0,0,1,.54-.529,1.827,1.827,0,0,0,.78-1.212.49.49,0,0,0-.156-.366.517.517,0,0,0-.372-.149q-.408,0-.576.527l-.216-.012q.048-1.116,1.3-1.224,0-1.128-.876-1.128a.732.732,0,0,0-.708.492l-.228-.06V5.268q.192-1.128,1.068-1.176a3.681,3.681,0,0,1,.66.072,2.815,2.815,0,0,1,.4-1.416,3.43,3.43,0,0,1,1.092-.984,3.811,3.811,0,0,1-1.116.2,2.017,2.017,0,0,1-.612-.108.722.722,0,0,1-.12-.024l-.24-.048q-.06-.012-.12-.018t-.12-.006q-.576,0-.66.72l-.276-.012a2.208,2.208,0,0,1,.444-1.14,1.326,1.326,0,0,1,1.08-.48A4.787,4.787,0,0,1,37.911,1q.336.084.576.12a2.725,2.725,0,0,0,.384.036A2.958,2.958,0,0,0,40.155.828l.192.264a2.032,2.032,0,0,1-.288.144,3.279,3.279,0,0,0-1.284.96,2.631,2.631,0,0,0-.4,1.536V5.82A3.332,3.332,0,0,1,38.211,7a3.083,3.083,0,0,1-.7.923,3.07,3.07,0,0,0,.726-.359,1.821,1.821,0,0,0,.474-.468,1.748,1.748,0,0,0,.258-.612,3.766,3.766,0,0,0,.078-.816V3.912A3.768,3.768,0,0,1,39.243,2.5a2.24,2.24,0,0,1,1.008-.972,7.409,7.409,0,0,1,1.8-.72V.792Zm-2.724.264V4.7l1.7-1.272L41.187,1.416a1.369,1.369,0,0,0-.768.564,1.95,1.95,0,0,0-.18.948V5.112A3.174,3.174,0,0,1,40.023,6.4a2.309,2.309,0,0,1-.876.948,3.05,3.05,0,0,1-.294.187l-.342.185a5.422,5.422,0,0,1,1.1-.144,3.578,3.578,0,0,1,1.08.179V3.264ZM41.7,5.616a1.7,1.7,0,0,0,.744-.156V5.22l-1.056-.528-.432.324v.456A1.986,1.986,0,0,0,41.7,5.616Zm-.324.887a2.574,2.574,0,0,1,.312-.023,2.539,2.539,0,0,1,.756.108V5.736a2.638,2.638,0,0,1-.756.132,2.818,2.818,0,0,1-.732-.12v.828C41.119,6.544,41.259,6.521,41.379,6.5Zm-.294,1.381c.044.024.086.044.126.061l.24.119a1.851,1.851,0,0,0,.384-.156h.012a5.054,5.054,0,0,1,.6-.215V6.865a2.883,2.883,0,0,0-.756-.121,2.526,2.526,0,0,0-.732.132v.948C41,7.84,41.041,7.861,41.085,7.884Z"/><path d="M46.371,9.1a3.069,3.069,0,0,0-1.452-.84V8.064a.843.843,0,0,0,.408-.852V2.5a2.393,2.393,0,0,0-.084-.768,1,1,0,0,0-.5-.552L44.8.984a3.3,3.3,0,0,1,.936.588A2.6,2.6,0,0,1,47.067.8l.06.18-.09.09a1.1,1.1,0,0,1-.138.114,1.117,1.117,0,0,0-.348.588,3.348,3.348,0,0,0-.048.7V7.764l.588.408.252-.192.168.192Z"/><path d="M51.459,9.1c-.032-.032-.07-.065-.114-.1s-.094-.082-.15-.138a1.791,1.791,0,0,1-.444-1.032L49.167,9.1a1.941,1.941,0,0,1-.924-1.488,3.151,3.151,0,0,1,.96-2.052l.168-.192L48.339,3.516q0,.012.036.012h.06a.035.035,0,0,0,.024.012h.132a2.2,2.2,0,0,0,1.464-.5l.048.024.072.036a3.437,3.437,0,0,0,1.5.468.8.8,0,0,0,.54-.264l.156.1a2.279,2.279,0,0,0-.42,1.188q-.012.132-.012.276V7.644q.012.432.3.469a.955.955,0,0,0,.288-.1l.024-.024.012-.012a.072.072,0,0,0,.048-.023l.12.143ZM48.723,3.732l.888,1.608,1.14.492V4.4Zm.78,1.8q-.036,0-.12.36a4.355,4.355,0,0,0-.144.96,1.877,1.877,0,0,0,.744,1.308l.768-.636V6.072L50.1,5.8Zm.072-4.14q0-.828,1.068-1.368L50.691,0q1.116.348,1.116,1.26a1.558,1.558,0,0,1-.4.876q-.4.528-.72.528V2.652Q49.575,2.316,49.575,1.392Zm1.776.168A1.012,1.012,0,0,0,51,.852a1,1,0,0,0-.7-.348A1.013,1.013,0,0,0,50.043,1a.674.674,0,0,0-.024.156q0,.6.828.936a.62.62,0,0,0,.2.072V2.148A.707.707,0,0,0,51.351,1.56Z"/><path d="M54.771,6.816l-1.116-.611V4.08a3.087,3.087,0,0,0,.888-.4q.156-.12.684-.648a3.548,3.548,0,0,0,1.56.432.774.774,0,0,0,.372-.084.331.331,0,0,0,.216-.3.379.379,0,0,0-.12-.276.011.011,0,0,1-.012-.012.44.44,0,0,1-.132-.324.308.308,0,0,1,.348-.348q.432,0,.432.5v.108a2.729,2.729,0,0,1-.516,1L56.367,5.124l1.224.708v2.34a4.5,4.5,0,0,0-1.656.924A2.623,2.623,0,0,0,54.6,8.652a1.908,1.908,0,0,0-1.2.444l-.156-.132Zm.912-.733-1.272,1.8.3-.084c.04-.008.076-.015.108-.023s.068-.017.108-.026h.06a.5.5,0,0,0,.1-.011h.228a.187.187,0,0,1,.072.011,2.406,2.406,0,0,1,1,.349V6.468ZM55.419,5.9l1.14-1.6a1.181,1.181,0,0,1-.348.048h-.132a1.58,1.58,0,0,1-.246-.018Q55.719,4.32,55.6,4.3a2.81,2.81,0,0,1-.768-.324v1.6Z"/></svg>